<svg width="175" height="175" viewBox="0 0 175 175" fill="none" xmlns="http://www.w3.org/2000/svg">
<path d="M47.123 66.644C50.219 62.0573 54.4617 58.3307 59.851 55.464C65.355 52.5973 71.6043 51.164 78.599 51.164C86.7403 51.164 94.079 53.1707 100.615 57.184C107.266 61.1973 112.483 66.9307 116.267 74.384C120.166 81.7227 122.115 90.2653 122.115 100.012C122.115 109.759 120.166 118.416 116.267 125.984C112.483 133.437 107.266 139.228 100.615 143.356C94.079 147.484 86.7403 149.548 78.599 149.548C71.4897 149.548 65.2403 148.172 59.851 145.42C54.5763 142.553 50.3337 138.884 47.123 134.412V148H23.043V20.72H47.123V66.644ZM97.519 100.012C97.519 94.2787 96.315 89.348 93.907 85.22C91.6137 80.9773 88.5177 77.7667 84.619 75.588C80.835 73.4093 76.707 72.32 72.235 72.32C67.8777 72.32 63.7497 73.4667 59.851 75.76C56.067 77.9387 52.971 81.1493 50.563 85.392C48.2697 89.6347 47.123 94.6227 47.123 100.356C47.123 106.089 48.2697 111.077 50.563 115.32C52.971 119.563 56.067 122.831 59.851 125.124C63.7497 127.303 67.8777 128.392 72.235 128.392C76.707 128.392 80.835 127.245 84.619 124.952C88.5177 122.659 91.6137 119.391 93.907 115.148C96.315 110.905 97.519 105.86 97.519 100.012Z" fill="#050D1B"/>
<path d="M141.677 149.204C137.32 149.204 133.708 147.885 130.841 145.248C128.089 142.496 126.713 139.113 126.713 135.1C126.713 131.087 128.089 127.761 130.841 125.124C133.708 122.372 137.32 120.996 141.677 120.996C145.92 120.996 149.417 122.372 152.169 125.124C154.921 127.761 156.297 131.087 156.297 135.1C156.297 139.113 154.921 142.496 152.169 145.248C149.417 147.885 145.92 149.204 141.677 149.204Z" fill="#0065FF"/>
</svg>
