<svg width="776" height="103" viewBox="0 0 776 103" fill="none" xmlns="http://www.w3.org/2000/svg">
<path d="M20.0012 36.672C22.4492 33.0453 25.8038 30.0987 30.0652 27.832C34.4172 25.5653 39.3585 24.432 44.8892 24.432C51.3265 24.432 57.1292 26.0187 62.2972 29.192C67.5558 32.3653 71.6812 36.8987 74.6732 42.792C77.7558 48.5947 79.2972 55.3493 79.2972 63.056C79.2972 70.7627 77.7558 77.608 74.6732 83.592C71.6812 89.4853 67.5558 94.064 62.2972 97.328C57.1292 100.592 51.3265 102.224 44.8892 102.224C39.2678 102.224 34.3265 101.136 30.0652 98.96C25.8945 96.6933 22.5398 93.792 20.0012 90.256V101H0.96118V0.359999H20.0012V36.672ZM59.8492 63.056C59.8492 58.5227 58.8972 54.624 56.9932 51.36C55.1798 48.0053 52.7318 45.4667 49.6492 43.744C46.6572 42.0213 43.3932 41.16 39.8572 41.16C36.4118 41.16 33.1478 42.0667 30.0652 43.88C27.0732 45.6027 24.6252 48.1413 22.7212 51.496C20.9078 54.8507 20.0012 58.7947 20.0012 63.328C20.0012 67.8613 20.9078 71.8053 22.7212 75.16C24.6252 78.5147 27.0732 81.0987 30.0652 82.912C33.1478 84.6347 36.4118 85.496 39.8572 85.496C43.3932 85.496 46.6572 84.5893 49.6492 82.776C52.7318 80.9627 55.1798 78.3787 56.9932 75.024C58.8972 71.6693 59.8492 67.68 59.8492 63.056ZM105.373 0.359999V101H86.3331V0.359999H105.373ZM150.841 102.224C143.587 102.224 137.059 100.637 131.257 97.464C125.454 94.2 120.875 89.6213 117.521 83.728C114.257 77.8347 112.625 71.0347 112.625 63.328C112.625 55.6213 114.302 48.8213 117.657 42.928C121.102 37.0347 125.771 32.5013 131.665 29.328C137.558 26.064 144.131 24.432 151.385 24.432C158.638 24.432 165.211 26.064 171.105 29.328C176.998 32.5013 181.622 37.0347 184.977 42.928C188.422 48.8213 190.145 55.6213 190.145 63.328C190.145 71.0347 188.377 77.8347 184.841 83.728C181.395 89.6213 176.681 94.2 170.697 97.464C164.803 100.637 158.185 102.224 150.841 102.224ZM150.841 85.632C154.286 85.632 157.505 84.816 160.497 83.184C163.579 81.4613 166.027 78.9227 167.841 75.568C169.654 72.2133 170.561 68.1333 170.561 63.328C170.561 56.1653 168.657 50.68 164.849 46.872C161.131 42.9733 156.553 41.024 151.113 41.024C145.673 41.024 141.094 42.9733 137.377 46.872C133.75 50.68 131.937 56.1653 131.937 63.328C131.937 70.4907 133.705 76.0213 137.241 79.92C140.867 83.728 145.401 85.632 150.841 85.632ZM192.415 63.328C192.415 55.5307 194.002 48.7307 197.175 42.928C200.349 37.0347 204.746 32.5013 210.367 29.328C215.989 26.064 222.426 24.432 229.679 24.432C239.018 24.432 246.725 26.7893 252.799 31.504C258.965 36.128 263.09 42.656 265.175 51.088H244.639C243.551 47.824 241.693 45.2853 239.063 43.472C236.525 41.568 233.351 40.616 229.543 40.616C224.103 40.616 219.797 42.6107 216.623 46.6C213.45 50.4987 211.863 56.0747 211.863 63.328C211.863 70.4907 213.45 76.0667 216.623 80.056C219.797 83.9547 224.103 85.904 229.543 85.904C237.25 85.904 242.282 82.4587 244.639 75.568H265.175C263.09 83.728 258.965 90.2107 252.799 95.016C246.634 99.8213 238.927 102.224 229.679 102.224C222.426 102.224 215.989 100.637 210.367 97.464C204.746 94.2 200.349 89.6667 197.175 83.864C194.002 77.9707 192.415 71.1253 192.415 63.328ZM367.66 25.384C376.364 25.384 383.436 28.1493 388.876 33.68C394.406 39.12 397.172 47.0533 397.172 57.48V101H387.788V58.568C387.788 50.4987 385.838 44.3333 381.94 40.072C378.041 35.8107 372.737 33.68 366.028 33.68C359.046 33.68 353.47 35.992 349.3 40.616C345.129 45.24 343.044 51.9493 343.044 60.744V101H333.66V58.568C333.66 50.4987 331.71 44.3333 327.812 40.072C323.913 35.8107 318.564 33.68 311.764 33.68C304.782 33.68 299.206 35.992 295.036 40.616C290.865 45.24 288.78 51.9493 288.78 60.744V101H279.26V26.744H288.78V39.528C291.137 34.904 294.492 31.4133 298.844 29.056C303.196 26.608 308.046 25.384 313.396 25.384C319.833 25.384 325.454 26.9253 330.26 30.008C335.156 33.0907 338.692 37.624 340.868 43.608C342.862 37.7147 346.262 33.2267 351.068 30.144C355.964 26.9707 361.494 25.384 367.66 25.384ZM412.602 63.736C412.602 56.12 414.098 49.456 417.09 43.744C420.173 37.9413 424.389 33.4987 429.738 30.416C435.178 27.2427 441.298 25.656 448.098 25.656C455.17 25.656 461.245 27.288 466.322 30.552C471.49 33.816 475.208 37.9867 477.474 43.064V26.744H486.994V101H477.474V84.544C475.117 89.6213 471.354 93.8373 466.186 97.192C461.109 100.456 455.034 102.088 447.962 102.088C441.253 102.088 435.178 100.501 429.738 97.328C424.389 94.1547 420.173 89.6667 417.09 83.864C414.098 78.0613 412.602 71.352 412.602 63.736ZM477.474 63.872C477.474 57.888 476.25 52.6293 473.802 48.096C471.354 43.5627 468 40.072 463.738 37.624C459.568 35.176 454.944 33.952 449.866 33.952C444.608 33.952 439.893 35.1307 435.722 37.488C431.552 39.8453 428.242 43.2907 425.794 47.824C423.437 52.2667 422.258 57.5707 422.258 63.736C422.258 69.8107 423.437 75.16 425.794 79.784C428.242 84.3173 431.552 87.808 435.722 90.256C439.893 92.6133 444.608 93.792 449.866 93.792C454.944 93.792 459.568 92.568 463.738 90.12C468 87.672 471.354 84.1813 473.802 79.648C476.25 75.1147 477.474 69.856 477.474 63.872ZM516.888 39.936C518.973 35.312 522.146 31.7307 526.408 29.192C530.76 26.6533 536.064 25.384 542.32 25.384V35.312H539.736C532.845 35.312 527.314 37.1707 523.144 40.888C518.973 44.6053 516.888 50.816 516.888 59.52V101H507.368V26.744H516.888V39.936ZM595.401 101L564.801 67.68V101H555.281V0.359999H564.801V59.928L594.721 26.744H608.049L572.825 63.736L608.321 101H595.401ZM686.449 60.064C686.449 63.328 686.358 65.8213 686.177 67.544H624.569C624.841 73.1653 626.201 77.9707 628.649 81.96C631.097 85.9493 634.316 88.9867 638.305 91.072C642.294 93.0667 646.646 94.064 651.361 94.064C657.526 94.064 662.694 92.568 666.865 89.576C671.126 86.584 673.937 82.5493 675.297 77.472H685.361C683.548 84.7253 679.649 90.664 673.665 95.288C667.772 99.8213 660.337 102.088 651.361 102.088C644.38 102.088 638.124 100.547 632.593 97.464C627.062 94.2907 622.71 89.848 619.537 84.136C616.454 78.3333 614.913 71.5787 614.913 63.872C614.913 56.1653 616.454 49.4107 619.537 43.608C622.62 37.8053 626.926 33.3627 632.457 30.28C637.988 27.1973 644.289 25.656 651.361 25.656C658.433 25.656 664.598 27.1973 669.857 30.28C675.206 33.3627 679.286 37.5333 682.097 42.792C684.998 47.96 686.449 53.7173 686.449 60.064ZM676.793 59.792C676.884 54.2613 675.75 49.5467 673.393 45.648C671.126 41.7493 667.998 38.8027 664.009 36.808C660.02 34.8133 655.668 33.816 650.953 33.816C643.881 33.816 637.852 36.0827 632.865 40.616C627.878 45.1493 625.113 51.5413 624.569 59.792H676.793ZM714.883 34.768V80.872C714.883 85.4053 715.744 88.5333 717.467 90.256C719.189 91.9787 722.227 92.84 726.579 92.84H735.283V101H725.083C718.373 101 713.387 99.4587 710.123 96.376C706.859 93.2027 705.227 88.0347 705.227 80.872V34.768H694.891V26.744H705.227V8.112H714.883V26.744H735.283V34.768H714.883Z" fill="#050D1B"/>
<path d="M761.275 102.204C756.918 102.204 753.306 100.885 750.439 98.248C747.687 95.496 746.311 92.1133 746.311 88.1C746.311 84.0867 747.687 80.7613 750.439 78.124C753.306 75.372 756.918 73.996 761.275 73.996C765.518 73.996 769.015 75.372 771.767 78.124C774.519 80.7613 775.895 84.0867 775.895 88.1C775.895 92.1133 774.519 95.496 771.767 98.248C769.015 100.885 765.518 102.204 761.275 102.204Z" fill="#0065FF"/>
</svg>
