<svg width="341" height="121" viewBox="0 0 341 121" fill="none" xmlns="http://www.w3.org/2000/svg">
<path d="M38.1829 54.672C40.6309 51.0453 43.9856 48.0987 48.2469 45.832C52.5989 43.5653 57.5402 42.432 63.0709 42.432C69.5082 42.432 75.3109 44.0187 80.4789 47.192C85.7376 50.3653 89.8629 54.8987 92.8549 60.792C95.9376 66.5947 97.4789 73.3493 97.4789 81.056C97.4789 88.7627 95.9376 95.608 92.8549 101.592C89.8629 107.485 85.7376 112.064 80.4789 115.328C75.3109 118.592 69.5082 120.224 63.0709 120.224C57.4496 120.224 52.5082 119.136 48.2469 116.96C44.0762 114.693 40.7216 111.792 38.1829 108.256V119H19.1429V18.36H38.1829V54.672ZM78.0309 81.056C78.0309 76.5227 77.0789 72.624 75.1749 69.36C73.3616 66.0053 70.9136 63.4667 67.8309 61.744C64.8389 60.0213 61.5749 59.16 58.0389 59.16C54.5936 59.16 51.3296 60.0667 48.2469 61.88C45.2549 63.6027 42.8069 66.1413 40.9029 69.496C39.0896 72.8507 38.1829 76.7947 38.1829 81.328C38.1829 85.8613 39.0896 89.8053 40.9029 93.16C42.8069 96.5147 45.2549 99.0987 48.2469 100.912C51.3296 102.635 54.5936 103.496 58.0389 103.496C61.5749 103.496 64.8389 102.589 67.8309 100.776C70.9136 98.9627 73.3616 96.3787 75.1749 93.024C77.0789 89.6693 78.0309 85.68 78.0309 81.056ZM123.555 18.36V119H104.515V18.36H123.555ZM169.022 120.224C161.769 120.224 155.241 118.637 149.438 115.464C143.636 112.2 139.057 107.621 135.702 101.728C132.438 95.8347 130.806 89.0347 130.806 81.328C130.806 73.6213 132.484 66.8213 135.838 60.928C139.284 55.0347 143.953 50.5013 149.846 47.328C155.74 44.064 162.313 42.432 169.566 42.432C176.82 42.432 183.393 44.064 189.286 47.328C195.18 50.5013 199.804 55.0347 203.158 60.928C206.604 66.8213 208.326 73.6213 208.326 81.328C208.326 89.0347 206.558 95.8347 203.022 101.728C199.577 107.621 194.862 112.2 188.878 115.464C182.985 118.637 176.366 120.224 169.022 120.224ZM169.022 103.632C172.468 103.632 175.686 102.816 178.678 101.184C181.761 99.4613 184.209 96.9227 186.022 93.568C187.836 90.2133 188.742 86.1333 188.742 81.328C188.742 74.1653 186.838 68.68 183.03 64.872C179.313 60.9733 174.734 59.024 169.294 59.024C163.854 59.024 159.276 60.9733 155.558 64.872C151.932 68.68 150.118 74.1653 150.118 81.328C150.118 88.4907 151.886 94.0213 155.422 97.92C159.049 101.728 163.582 103.632 169.022 103.632ZM210.597 81.328C210.597 73.5307 212.184 66.7307 215.357 60.928C218.53 55.0347 222.928 50.5013 228.549 47.328C234.17 44.064 240.608 42.432 247.861 42.432C257.2 42.432 264.906 44.7893 270.981 49.504C277.146 54.128 281.272 60.656 283.357 69.088H262.821C261.733 65.824 259.874 63.2853 257.245 61.472C254.706 59.568 251.533 58.616 247.725 58.616C242.285 58.616 237.978 60.6107 234.805 64.6C231.632 68.4987 230.045 74.0747 230.045 81.328C230.045 88.4907 231.632 94.0667 234.805 98.056C237.978 101.955 242.285 103.904 247.725 103.904C255.432 103.904 260.464 100.459 262.821 93.568H283.357C281.272 101.728 277.146 108.211 270.981 113.016C264.816 117.821 257.109 120.224 247.861 120.224C240.608 120.224 234.17 118.637 228.549 115.464C222.928 112.2 218.53 107.667 215.357 101.864C212.184 95.9707 210.597 89.1253 210.597 81.328Z" fill="#050D1B"/>
<path d="M309.093 120.204C304.736 120.204 301.124 118.885 298.257 116.248C295.505 113.496 294.129 110.113 294.129 106.1C294.129 102.087 295.505 98.7613 298.257 96.124C301.124 93.372 304.736 91.996 309.093 91.996C313.336 91.996 316.833 93.372 319.585 96.124C322.337 98.7613 323.713 102.087 323.713 106.1C323.713 110.113 322.337 113.496 319.585 116.248C316.833 118.885 313.336 120.204 309.093 120.204Z" fill="#0065FF"/>
</svg>
